<svg width="96" height="48" viewBox="0 0 96 48" fill="none" xmlns="http://www.w3.org/2000/svg">
<g clip-path="url(#clip0)">
<path d="M52.6324 34.6306H49.7368L48.2944 30.6938H42.0694L40.7355 34.6306H37.8398L43.7395 19.209H46.6243L52.6324 34.6306ZM47.622 28.6116L45.3988 22.4842C45.3012 22.1588 45.2253 21.8335 45.1819 21.4973C45.1277 21.8335 45.0626 22.1588 44.965 22.4842L42.8502 28.6116H47.622ZM62.7617 24.6749L56.7535 32.6568H62.7617V34.6306H53.1855V33.6654L59.4214 25.5642H53.8579V23.5904H62.8701V24.6749H62.7617ZM74.7671 34.6306H72.2077V32.8845C71.5353 34.1534 70.1905 34.9126 68.759 34.8583C66.0911 34.8583 64.7572 33.3292 64.7572 30.1516V23.5904H67.3166V29.9347C67.3166 31.9085 68.0974 32.8845 69.6483 32.8845C70.364 32.9171 71.0473 32.6351 71.5353 32.1145C72.0342 31.4964 72.3053 30.7264 72.3053 29.9239V23.5904H74.8647L74.7671 34.6306ZM84.5493 25.9871C84.148 25.7485 83.6817 25.6401 83.2154 25.6618C82.4454 25.6618 81.8814 25.9871 81.3283 26.6487C80.7752 27.3102 80.5583 28.1887 80.5583 29.3816V34.6306H77.9989V23.5904H80.5583V25.8895C80.7644 25.1846 81.1548 24.5447 81.6754 24.035C82.1525 23.6012 82.7816 23.3626 83.4323 23.3735C83.7793 23.3735 84.1263 23.4385 84.43 23.5904L84.5493 25.9871ZM95.8932 29.8154H88.2149C88.2149 30.8023 88.5511 31.6699 89.2126 32.223C89.7657 32.7652 90.655 33.1014 91.7721 33.1014C92.9759 33.1231 94.158 32.7436 95.1232 32.0061V33.9799C94.1146 34.6414 92.7807 34.9668 91.1105 34.9668C89.6573 35.021 88.2474 34.4571 87.2172 33.4268C86.2194 32.4399 85.7748 31.0192 85.7748 29.1647C85.7206 27.6247 86.2736 26.1389 87.3148 25.0111C88.3125 23.9266 89.7332 23.3301 91.2081 23.3735C92.7481 23.3735 93.876 23.8073 94.7653 24.7942C95.6546 25.7811 95.9908 27.0933 95.9908 28.8394L95.8932 29.8154ZM93.453 28.0694C93.453 27.1909 93.2361 26.4318 92.7915 25.9871C92.3577 25.4557 91.6962 25.1629 91.0129 25.2171C90.2971 25.1846 89.6139 25.4666 89.1259 25.9871C88.5728 26.5294 88.3559 27.1909 88.2366 28.0694H93.453Z" fill="#008AD7"/>
<path d="M21.5816 14.5886L16.441 24.9455L25.4966 35.4327L8.68685 37.3414L34.7582 37.6125L21.5816 14.5886ZM20.5621 10.5L8.76277 20.3798L0 35.1615L7.46137 34.4132L20.5621 10.5Z" fill="#008AD7"/>
</g>
<defs>
<clipPath id="clip0">
<rect width="96" height="27.1125" fill="white" transform="translate(0 10.5)"/>
</clipPath>
</defs>
</svg>
