<svg width="96" height="48" viewBox="0 0 96 48" fill="none" xmlns="http://www.w3.org/2000/svg">
<g clip-path="url(#clip0)">
<path fill-rule="evenodd" clip-rule="evenodd" d="M47.9985 16.8965C44.0625 16.8965 40.8945 20.0645 40.8945 24.0005C40.8945 25.2485 41.2785 26.4965 41.8545 27.4565L54.0465 20.4485C52.8945 18.3365 50.5905 16.8965 47.9985 16.8965Z" fill="#5E98CF"/>
<path fill-rule="evenodd" clip-rule="evenodd" d="M33.7898 24.0004C33.7898 16.1284 40.1258 9.79241 47.9978 9.79241C53.2778 9.79241 57.7898 12.6724 60.2858 16.8964L68.8298 12.0004C68.4458 11.4244 67.9658 10.8484 67.2938 10.4644C61.6298 7.20041 55.8698 3.93641 50.2058 0.672414C48.6698 -0.191586 47.2298 -0.191586 45.6938 0.672414C43.3898 2.01641 32.0618 8.54441 28.7018 10.4644C27.3578 11.2324 26.5898 12.4804 26.5898 14.1124C26.5898 20.7364 26.5898 27.2644 26.5898 33.8884C26.5898 34.6564 26.7818 35.4244 27.0698 36.0004L35.6138 31.1044C34.4618 28.9924 33.7898 26.5924 33.7898 24.0004Z" fill="#5E98CF"/>
<path d="M41.8555 27.4583C43.1035 29.5702 45.4075 31.0102 47.9995 31.0102C50.6875 31.0102 52.8955 29.5702 54.1435 27.4583L48.0955 23.9062L41.8555 27.4583Z" fill="#044E87"/>
<path d="M48 38.2107C42.72 38.2107 38.112 35.3307 35.712 31.1067L27.168 36.0027C27.552 36.5787 28.032 37.1547 28.704 37.5387C32.064 39.4587 43.392 45.9867 45.696 47.3307C47.232 48.1947 48.672 48.2907 50.208 47.3307C55.872 44.0667 61.536 40.8027 67.296 37.5387C67.968 37.1547 68.544 36.5787 68.832 36.0027L60.288 31.0107C57.888 35.3307 53.28 38.2107 48 38.2107Z" fill="#044E87"/>
<path d="M69.3097 14.113C69.3097 13.345 69.1177 12.577 68.8297 12.001L48.0938 23.905L68.9257 35.905C69.2137 35.329 69.4057 34.561 69.4057 33.793C69.3097 33.889 69.3097 20.737 69.3097 14.113ZM62.3018 24.769H60.6697V26.401H59.0377V24.769H57.4057V23.137H59.0377V21.505H60.6697V23.137H62.3018V24.769ZM68.2537 24.769H66.6217V26.401H64.9897V24.769H63.3577V23.137H64.9897V21.505H66.6217V23.137H68.2537V24.769Z" fill="#0062A2"/>
<path d="M66.6273 21.5039H64.9953V23.1359H63.3633V24.7679H64.9953V26.3999H66.6273V24.7679H68.2593V23.1359H66.6273V21.5039Z" fill="white"/>
<path d="M60.6742 21.5039H59.0422V23.1359H57.4102V24.7679H59.0422V26.3999H60.6742V24.7679H62.3062V23.1359H60.6742V21.5039Z" fill="white"/>
<path d="M54.145 27.4579C52.897 29.5699 50.593 31.0099 48.001 31.0099C45.409 31.0099 43.105 29.5699 41.857 27.4579C41.281 26.4019 40.897 25.2499 40.897 24.0019C40.897 20.0659 44.065 16.8979 48.001 16.8979C50.593 16.8979 52.897 18.3379 54.145 20.4499L60.289 16.8979C57.793 12.6739 53.281 9.79395 48.001 9.79395C40.129 9.79395 33.793 16.1299 33.793 24.0019C33.793 26.5939 34.465 28.9939 35.713 31.1059C38.113 35.3299 42.721 38.2099 48.001 38.2099C53.281 38.2099 57.889 35.3299 60.289 31.1059L54.145 27.4579Z" fill="white"/>
</g>
<defs>
<clipPath id="clip0">
<rect width="48" height="48" fill="white" transform="translate(24)"/>
</clipPath>
</defs>
</svg>
