<svg width="96" height="48" viewBox="0 0 96 48" fill="none" xmlns="http://www.w3.org/2000/svg">
<path d="M7.2447 16.8607C7.0589 16.8607 7.01043 16.7637 7.10737 16.6264L8.08486 15.3662C8.14866 15.2917 8.22803 15.2321 8.31736 15.1916C8.40669 15.1511 8.50382 15.1307 8.60188 15.1319H25.2758C25.4616 15.1319 25.5101 15.2692 25.4132 15.4146L24.6053 16.6264C24.5498 16.7021 24.4798 16.7661 24.3993 16.8147C24.3189 16.8632 24.2297 16.8953 24.1368 16.9091L7.2447 16.8607Z" fill="#00ACD7"/>
<path d="M0.186108 21.1564C0.000303402 21.1564 -0.0481673 21.0594 0.0487742 20.9221L1.02627 19.6861C1.09007 19.6116 1.16943 19.552 1.25876 19.5115C1.3481 19.4711 1.44522 19.4507 1.54329 19.4518H22.8462C22.8825 19.4474 22.9193 19.4521 22.9533 19.4656C22.9872 19.4792 23.0173 19.501 23.0406 19.5292C23.0639 19.5573 23.0798 19.5909 23.0868 19.6268C23.0937 19.6627 23.0916 19.6997 23.0805 19.7346L22.7089 20.8575C22.6803 20.9446 22.6235 21.0198 22.5474 21.071C22.4713 21.1222 22.3803 21.1466 22.2888 21.1402L0.186108 21.1564Z" fill="#00ACD7"/>
<path d="M11.4986 25.4534C11.3128 25.4534 11.2643 25.3161 11.3613 25.1707L12.0156 23.9993C12.0636 23.9259 12.1266 23.8635 12.2003 23.8162C12.2741 23.7688 12.3571 23.7376 12.4438 23.7246H21.8229C22.0087 23.7246 22.1056 23.8619 22.1056 24.0477L22.0087 25.1707C22.003 25.2545 21.9671 25.3334 21.9077 25.3928C21.8483 25.4523 21.7694 25.4881 21.6855 25.4938L11.4986 25.4534Z" fill="#00ACD7"/>
<path d="M59.9954 16.0194C57.0548 16.7707 55.0433 17.3281 52.1431 18.0794C51.4403 18.2652 51.3918 18.3137 50.7859 17.6109C50.1987 16.8585 49.4471 16.2506 48.5886 15.8336C45.648 14.3876 42.7963 14.8076 40.1304 16.5364C38.6154 17.4576 37.3744 18.7675 36.5363 20.33C35.6982 21.8926 35.2935 23.651 35.3642 25.4227C35.3449 27.2033 35.9748 28.9299 37.1359 30.2798C38.2971 31.6298 39.9101 32.5107 41.6734 32.758C43.1492 32.971 44.6549 32.7979 46.0438 32.2557C47.4327 31.7134 48.6574 30.8205 49.5984 29.6639C50.0185 29.1469 50.4063 28.5895 50.8586 27.9351H41.8673C40.8898 27.9351 40.6556 27.3293 40.9787 26.5295C41.5846 25.0834 42.7075 22.6518 43.3618 21.4401C43.4617 21.2136 43.6261 21.0217 43.8344 20.8881C44.0427 20.7545 44.2858 20.6851 44.5332 20.6888H61.5384C61.4414 21.949 61.4414 23.2092 61.2556 24.4776C60.7725 27.8054 59.4552 30.9568 57.4264 33.6385C55.8685 35.8043 53.8822 37.6267 51.5906 38.9928C49.299 40.3588 46.7511 41.2393 44.1051 41.5797C41.91 41.936 39.6656 41.8464 37.5059 41.3162C35.3462 40.786 33.3155 39.8261 31.535 38.4937C29.8746 37.2771 28.4886 35.7249 27.467 33.9379C26.4455 32.1509 25.8112 30.169 25.6054 28.1209C25.32 25.6888 25.5247 23.2241 26.2074 20.8723C26.89 18.5206 28.0368 16.3293 29.58 14.428C32.7456 10.1572 37.4305 7.26532 42.6671 6.34949C47.0618 5.54165 51.2626 6.06675 55.0514 8.6357C57.4726 10.2462 59.3596 12.541 60.472 15.2277C60.7386 15.6478 60.5528 15.874 59.9954 16.0194Z" fill="#00ACD7"/>
<path d="M75.4559 41.8553C71.2911 41.8813 67.2531 40.4236 64.0652 37.7434C61.3434 35.4509 59.5487 32.2464 59.0162 28.7278C58.6155 26.2412 58.746 23.698 59.3991 21.2655C60.0521 18.833 61.2129 16.5663 62.805 14.6147C66.2141 10.1312 70.326 7.79652 75.8921 6.81095C80.6503 5.95464 85.15 6.43934 89.1893 9.18602C90.9845 10.334 92.5055 11.8624 93.6446 13.6633C94.7837 15.4641 95.5132 17.4933 95.7813 19.6072C96.2315 22.4854 95.978 25.4297 95.0425 28.1885C94.1069 30.9473 92.5172 33.4385 90.4091 35.4491C87.3626 38.5307 83.4527 40.6152 79.1962 41.4272C77.944 41.6695 76.6838 41.718 75.4559 41.8553ZM86.5799 22.976C86.5638 22.4594 86.518 21.9442 86.4426 21.433C86.2702 20.3761 85.8792 19.3669 85.2946 18.4697C84.7101 17.5725 83.9448 16.8071 83.0477 16.2225C82.1505 15.6378 81.1413 15.2468 80.0845 15.0742C79.0277 14.9017 77.9465 14.9516 76.91 15.2206C74.8877 15.5962 73.0259 16.5739 71.5686 18.0254C70.1113 19.477 69.1263 21.3348 68.7427 23.3556C68.3183 25.0966 68.5146 26.9311 69.2977 28.5429C70.0807 30.1547 71.4015 31.4429 73.0323 32.1854C74.2377 32.7298 75.5528 32.9876 76.8745 32.9385C78.1962 32.8894 79.4886 32.5349 80.6503 31.9026C82.3632 31.113 83.8244 29.8651 84.8722 28.2968C85.9201 26.7285 86.5139 24.901 86.588 23.0163L86.5799 22.976Z" fill="#00ACD7"/>
</svg>
