<svg width="96" height="48" viewBox="0 0 96 48" fill="none" xmlns="http://www.w3.org/2000/svg">
<path d="M16.208 16.3438C12.1232 16.3438 8.81641 19.6505 8.81641 23.7353C8.81641 27.8202 12.1232 31.1269 16.208 31.1269C20.2928 31.1269 23.5996 27.8202 23.5996 23.7353C23.5866 19.6505 20.2669 16.3438 16.208 16.3438Z" fill="#3880FF"/>
<path d="M26.8052 17.0059C28.6673 17.0059 30.1768 15.4964 30.1768 13.6343C30.1768 11.7722 28.6673 10.2627 26.8052 10.2627C24.9431 10.2627 23.4336 11.7722 23.4336 13.6343C23.4336 15.4964 24.9431 17.0059 26.8052 17.0059Z" fill="#3880FF"/>
<path d="M30.941 17.0053L30.8113 16.7071L30.5908 16.9794C30.0462 17.6019 29.333 18.0817 28.5549 18.3669L28.3345 18.4577L28.4252 18.6782C29.1125 20.2991 29.4367 22.0109 29.4367 23.7485C29.4367 31.0494 23.4975 37.0016 16.1837 37.0016C8.86992 37.0016 2.95664 31.0494 2.95664 23.7485C2.95664 16.4477 8.89585 10.5085 16.2096 10.5085C18.1937 10.5085 20.087 10.9624 21.8765 11.7923L22.0711 11.8831L22.1618 11.6626C22.499 10.8975 22.9918 10.2232 23.6661 9.69154L23.9384 9.47109L23.6401 9.31548C21.3189 8.12245 18.8291 7.5 16.2096 7.5C7.27489 7.5 0 14.7749 0 23.7096C0 32.6444 7.27489 39.9193 16.2096 39.9193C25.1444 39.9193 32.4193 32.6444 32.4193 23.7096C32.4063 21.3884 31.9135 19.145 30.941 17.0053Z" fill="#3880FF"/>
<path d="M44.1813 16.6699H40.7578V30.7788H44.1813V16.6699Z" fill="#3880FF"/>
<path d="M81.0602 16.6699H77.6367V30.7788H81.0602V16.6699Z" fill="#3880FF"/>
<path d="M69.7391 16.3457C67.34 16.3457 65.4857 17.7981 65.0707 18.2001L64.8373 16.6829H61.9844V30.7917H65.4079V22.259C65.4079 20.5732 67.6772 19.2245 69.363 19.2245C70.9969 19.2245 72.2807 20.8066 72.2807 22.7129V30.8047H75.7042V23.05C75.6653 19.3283 74.0703 16.3457 69.7391 16.3457Z" fill="#3880FF"/>
<path d="M90.0097 28.224C87.4291 28.224 85.7433 26.2269 85.7433 23.7242C85.7433 21.2214 87.4421 19.2244 90.0097 19.2244C92.1883 19.2244 93.524 21.3381 93.524 21.3381L95.9878 19.6912C95.2876 18.589 94.4576 17.9276 93.3165 17.2403C92.4865 16.7346 91.3454 16.3066 90.1005 16.3066C85.8341 16.3066 82.5662 19.5226 82.5273 23.6982C82.5403 27.8609 85.8082 31.0898 90.1005 31.0898C91.3584 31.0898 92.4865 30.6749 93.3165 30.1562C94.4317 29.4689 95.2876 28.8075 95.9878 27.7053L93.524 26.0584C93.524 26.0973 92.2013 28.224 90.0097 28.224Z" fill="#3880FF"/>
<path d="M53.0791 16.3457C48.7738 16.3457 45.6875 19.7173 45.6875 23.6595C45.6875 27.6795 48.683 31.1159 53.1439 31.1159C57.1769 31.1159 60.4577 28.0296 60.4577 23.7503C60.4577 18.8614 56.6323 16.3457 53.0791 16.3457ZM53.131 19.2634C55.2447 19.2634 57.2547 20.9752 57.2547 23.7632C57.2547 26.4735 55.2577 28.2501 53.105 28.2501C50.7708 28.2501 48.9165 26.3568 48.9165 23.7503C48.9165 21.1567 50.7449 19.2634 53.131 19.2634Z" fill="#3880FF"/>
</svg>
