<svg width="96" height="48" viewBox="0 0 96 48" fill="none" xmlns="http://www.w3.org/2000/svg">
<path d="M19.1923 16.8549C22.2314 16.8549 24.1902 17.3907 25.174 18.5502C26.1577 19.7096 26.4212 21.5893 25.8854 24.2595C25.3496 26.9298 24.278 29.0818 22.7585 30.2412C21.2389 31.4007 18.8322 31.9979 15.6173 31.9979H10.8039L13.7464 16.8198L19.1923 16.8549ZM0 47.3869H7.85259L9.72351 37.7249H16.5133C18.9886 37.7799 21.4572 37.448 23.8301 36.7411C25.7898 36.0869 27.5868 35.0206 29.1003 33.6141C30.3722 32.4497 31.4566 31.0956 32.3151 29.6C33.137 28.0888 33.7291 26.4635 34.0718 24.7778C34.8711 20.4914 34.2475 17.1009 32.2009 14.782C30.1543 12.4631 26.755 11.207 22.2051 11.207H7.05328L0 47.3869Z" fill="#6082BB"/>
<path d="M39.8766 1.5H47.7819L45.911 11.162H52.8764C57.2682 11.162 60.2898 11.9613 61.9851 13.4809C63.6803 15.0005 64.1283 17.495 63.5046 20.8943L60.1668 37.7414H52.2616L55.3446 21.7639C55.7047 20.0072 55.6081 18.7248 54.9845 18.0133C54.3608 17.3018 53.0521 17.0295 51.0582 17.0295H44.813L40.755 37.7414H32.9375L39.8766 1.5Z" fill="#6082BB"/>
<path d="M80.7899 16.8549C83.8291 16.8549 85.7878 17.3907 86.7716 18.5502C87.7554 19.7096 88.0189 21.5893 87.4831 24.2595C86.9473 26.9298 85.8757 29.0818 84.3561 30.2412C82.8365 31.4007 80.4298 31.9979 77.215 31.9979H72.3752L75.3177 16.8198L80.7899 16.8549ZM61.5977 47.3869H69.4502L71.3212 37.7249H78.1021C80.5774 37.7799 83.0461 37.448 85.4189 36.7411C87.3787 36.0869 89.1757 35.0206 90.6891 33.6141C91.9611 32.4497 93.0455 31.0956 93.904 29.6C94.7259 28.0888 95.3179 26.4635 95.6607 24.7778C96.46 20.4914 95.8364 17.1009 93.7898 14.782C91.7432 12.4631 88.3439 11.207 83.794 11.207H68.6509L61.624 47.3606L61.5977 47.3869Z" fill="#6082BB"/>
</svg>
