<svg width="96" height="48" viewBox="0 0 96 48" fill="none" xmlns="http://www.w3.org/2000/svg">
<path d="M74.2609 21.9059L62.8833 2.10989C62.5134 1.4783 61.9872 0.95249 61.3553 0.582991C60.7235 0.213491 60.0072 0.0127289 59.2754 0L36.5255 0C35.7937 0.0127289 35.0774 0.213491 34.4456 0.582991C33.8137 0.95249 33.2875 1.4783 32.9176 2.10989L21.54 21.9059C21.1858 22.5461 21 23.2657 21 23.9974C21 24.729 21.1858 25.4486 21.54 26.0888L32.9176 45.8901C33.2875 46.5217 33.8137 47.0475 34.4456 47.417C35.0774 47.7865 35.7937 47.9873 36.5255 48H59.2807C60.0125 47.9873 60.7288 47.7865 61.3606 47.417C61.9925 47.0475 62.5186 46.5217 62.8886 45.8901L74.2662 26.073C74.6167 25.4343 74.8001 24.7173 74.7992 23.9888C74.7982 23.2602 74.6131 22.5437 74.2609 21.9059ZM58.9747 36.3956H55.0503C54.9596 36.3927 54.8711 36.3664 54.7935 36.3193C54.7159 36.2722 54.6517 36.2058 54.6073 36.1266L47.9664 24.2637C47.9334 24.2051 47.9119 24.1406 47.9031 24.0738C47.8943 24.1406 47.8728 24.2051 47.8398 24.2637L41.1778 36.1371C41.1348 36.2141 41.0731 36.2791 40.9985 36.3261C40.9238 36.3731 40.8386 36.4006 40.7506 36.4062H36.8262C36.7385 36.4016 36.6534 36.3752 36.5785 36.3294C36.5036 36.2835 36.4414 36.2198 36.3974 36.1438C36.3534 36.0679 36.329 35.9821 36.3265 35.8944C36.324 35.8066 36.3435 35.7197 36.3831 35.6413L42.8815 24L36.3831 12.3429C36.3495 12.2723 36.332 12.1952 36.3318 12.1171C36.3317 12.039 36.3489 11.9618 36.3822 11.8912C36.4155 11.8205 36.4641 11.7581 36.5245 11.7085C36.5848 11.6589 36.6554 11.6234 36.7312 11.6044H40.7506C40.8371 11.6083 40.9213 11.6334 40.9958 11.6776C41.0704 11.7217 41.1329 11.7835 41.1778 11.8576L47.8398 23.7363C47.8728 23.7949 47.8943 23.8594 47.9031 23.9262C47.9119 23.8594 47.9334 23.7949 47.9664 23.7363L54.6073 11.847C54.6549 11.7728 54.7205 11.7116 54.7979 11.6692C54.8753 11.6268 54.9621 11.6045 55.0503 11.6044H58.9747C59.0602 11.6101 59.1431 11.6365 59.2161 11.6815C59.2891 11.7264 59.35 11.7884 59.3936 11.8621C59.4373 11.9359 59.4623 12.0192 59.4665 12.1048C59.4707 12.1904 59.454 12.2757 59.4178 12.3534L52.9246 24L59.4231 35.6413C59.4605 35.7196 59.4781 35.806 59.4741 35.8927C59.4702 35.9794 59.445 36.0638 59.4006 36.1384C59.3563 36.213 59.2942 36.2755 59.2199 36.3204C59.1456 36.3652 59.0614 36.3911 58.9747 36.3956Z" fill="#3498DB"/>
</svg>
